<?xml version="1.0" encoding="UTF-8" standalone="no"?><!DOCTYPE svg PUBLIC "-//W3C//DTD SVG 1.1//EN" "http://www.w3.org/Graphics/SVG/1.1/DTD/svg11.dtd"><svg width="100%" height="100%" viewBox="0 0 1260 624" version="1.1" xmlns="http://www.w3.org/2000/svg" xmlns:xlink="http://www.w3.org/1999/xlink" xml:space="preserve" xmlns:serif="http://www.serif.com/" style="fill-rule:evenodd;clip-rule:evenodd;stroke-linejoin:round;stroke-miterlimit:2;"><path d="M168.742,575.956c-8.518,17.33 -19.312,29.519 -32.383,36.568c-13.071,7.049 -25.774,10.574 -38.11,10.574c-16.155,0 -30.327,-4.186 -42.516,-12.557c-12.189,-8.371 -22.396,-19.826 -30.62,-34.365c-8.224,-14.539 -14.466,-31.722 -18.725,-51.548c-4.259,-19.826 -6.388,-41.341 -6.388,-64.545c0,-23.204 2.129,-44.792 6.388,-64.765c4.259,-19.973 10.501,-37.229 18.725,-51.768c8.224,-14.539 18.431,-25.921 30.62,-34.145c12.189,-8.224 26.361,-12.336 42.516,-12.336c11.749,0 23.718,3.084 35.907,9.252c12.189,6.168 22.249,16.742 30.18,31.722l-7.93,4.846c-7.343,-13.217 -16.228,-22.69 -26.655,-28.417c-10.427,-5.728 -20.928,-8.591 -31.502,-8.591c-14.98,0 -28.05,4.039 -39.212,12.116c-11.161,8.077 -20.34,19.018 -27.536,32.823c-7.196,13.805 -12.63,30.106 -16.301,48.904c-3.672,18.798 -5.507,38.918 -5.507,60.36c0,21.442 1.836,41.488 5.507,60.139c3.672,18.651 9.179,34.953 16.522,48.904c7.343,13.952 16.595,24.966 27.757,33.044c11.161,8.077 24.085,12.116 38.771,12.116c11.455,0 22.91,-3.525 34.365,-10.574c11.455,-7.049 20.854,-17.917 28.197,-32.603l7.93,4.846Z" style="fill:#fff;fill-rule:nonzero;"/><path d="M320.743,527.051l-109.705,0l-23.791,88.997l-9.693,0l80.626,-311.931l16.742,0l77.983,311.931l-9.693,0l-22.47,-88.997Zm-107.502,-8.812l105.299,0l-51.107,-207.514l-1.762,0l-52.429,207.514Z" style="fill:#fff;"/><path d="M528.697,381.66c0,12.924 -1.762,24.452 -5.287,34.586c-3.525,10.133 -8.298,18.651 -14.319,25.554c-6.021,6.902 -13.144,12.189 -21.368,15.861c-8.224,3.672 -17.036,5.507 -26.435,5.507l-54.191,0l0,152.882l-9.693,0l0,-311.931l61.241,0c7.93,0 16.008,1.248 24.232,3.745c8.224,2.497 15.714,6.682 22.47,12.557c6.756,5.874 12.336,13.805 16.742,23.791c4.406,9.986 6.609,22.47 6.609,37.449Zm-9.693,0c0,-12.63 -1.689,-23.277 -5.067,-31.942c-3.378,-8.665 -7.857,-15.714 -13.438,-21.148c-5.581,-5.434 -11.749,-9.399 -18.504,-11.896c-6.756,-2.497 -13.511,-3.745 -20.267,-3.745l-54.632,0l0,140.986l55.954,0c6.756,0 13.511,-1.395 20.267,-4.186c6.756,-2.79 12.777,-7.123 18.064,-12.997c5.287,-5.874 9.546,-13.364 12.777,-22.47c3.231,-9.105 4.846,-19.973 4.846,-32.603Z" style="fill:#fff;"/><path d="M614.17,312.929l0,303.12l-9.693,0l0,-303.12l-61.681,0l0,-8.812l133.055,0l0,8.812l-61.681,0Z" style="fill:#fff;fill-rule:nonzero;"/><path d="M873.672,501.938c0,17.036 -1.322,32.97 -3.965,47.803c-2.643,14.833 -7.049,27.683 -13.217,38.551c-6.168,10.868 -14.392,19.386 -24.673,25.554c-10.28,6.168 -23.057,9.252 -38.331,9.252c-15.567,0 -28.491,-3.084 -38.771,-9.252c-10.28,-6.168 -18.504,-14.686 -24.673,-25.554c-6.168,-10.868 -10.501,-23.718 -12.997,-38.551c-2.497,-14.833 -3.745,-30.767 -3.745,-47.803l0,-197.821l9.693,0l0,192.974c0,14.099 0.808,28.124 2.423,42.075c1.615,13.952 4.92,26.508 9.913,37.67c4.993,11.161 12.116,20.193 21.368,27.096c9.252,6.902 21.515,10.354 36.789,10.354c14.98,0 27.096,-3.378 36.348,-10.133c9.252,-6.756 16.448,-15.641 21.588,-26.655c5.14,-11.015 8.518,-23.498 10.133,-37.449c1.615,-13.952 2.423,-28.271 2.423,-42.957l0,-192.974l9.693,0l0,197.821Z" style="fill:#fff;fill-rule:nonzero;"/><path d="M1075.017,616.049l-65.647,-157.287l-49.345,0l0,157.287l-9.693,0l0,-311.931l61.241,0c7.637,0 15.714,1.101 24.232,3.304c8.518,2.203 16.301,6.168 23.351,11.896c7.049,5.728 12.924,13.511 17.623,23.351c4.7,9.84 7.049,22.396 7.049,37.67c0,14.392 -1.983,26.508 -5.948,36.348c-3.965,9.84 -9.032,17.844 -15.2,24.012c-6.168,6.168 -13.071,10.647 -20.707,13.438c-7.637,2.79 -15.127,4.186 -22.47,4.186l66.528,157.728l-11.015,0Zm-0.441,-235.711c0,-12.924 -1.836,-23.718 -5.507,-32.383c-3.672,-8.665 -8.518,-15.567 -14.539,-20.707c-6.021,-5.14 -12.997,-8.812 -20.928,-11.015c-7.93,-2.203 -16.008,-3.304 -24.232,-3.304l-49.345,0l0,137.021l52.429,0c20.267,0 35.687,-6.315 46.261,-18.945c10.574,-12.63 15.861,-29.519 15.861,-50.667Z" style="fill:#fff;"/><path d="M1144.188,616.049l0,-311.931l112.348,0l0,8.812l-102.655,0l0,137.021l96.487,0l0,8.812l-96.487,0l0,148.476l105.739,0l0,8.812l-115.432,0Z" style="fill:#fff;fill-rule:nonzero;"/><path d="M65.223,95.402l46.056,0l0,55.626l-45.757,0l0,75.066l-64.598,0l0,-211.739l114.542,0l0,58.617l-50.243,0l0,22.43Z" style="fill:#fff;fill-rule:nonzero;"/><rect x="136.101" y="0" width="62.804" height="226.094" style="fill:#fff;fill-rule:nonzero;"/><path d="M292.513,232.075c-11.165,0 -21.184,-2.143 -30.056,-6.43c-8.872,-4.287 -16.449,-10.268 -22.729,-17.944c-6.28,-7.676 -11.065,-16.798 -14.355,-27.365c-3.29,-10.567 -4.935,-22.031 -4.935,-34.393c0,-12.561 1.645,-24.125 4.935,-34.692c3.29,-10.567 8.075,-19.689 14.355,-27.365c6.28,-7.676 13.857,-13.657 22.729,-17.944c8.872,-4.287 18.891,-6.43 30.056,-6.43c11.365,0 21.483,2.143 30.355,6.43c8.872,4.287 16.399,10.268 22.579,17.944c6.181,7.676 10.916,16.798 14.206,27.365c3.29,10.567 4.935,22.131 4.935,34.692c0,12.361 -1.645,23.826 -4.935,34.393c-3.29,10.567 -8.025,19.689 -14.206,27.365c-6.181,7.676 -13.707,13.657 -22.579,17.944c-8.872,4.287 -18.991,6.43 -30.355,6.43Zm0,-118.729c-4.785,0 -8.324,3.14 -10.617,9.421c-2.293,6.28 -3.439,13.907 -3.439,22.879c0,4.386 0.299,8.523 0.897,12.411c0.598,3.888 1.445,7.327 2.542,10.318c1.097,2.991 2.542,5.333 4.336,7.028c1.794,1.695 3.888,2.542 6.28,2.542c2.592,0 4.835,-0.847 6.729,-2.542c1.894,-1.695 3.439,-4.037 4.636,-7.028c1.196,-2.991 2.044,-6.43 2.542,-10.318c0.498,-3.888 0.748,-8.025 0.748,-12.411c0,-8.972 -1.146,-16.598 -3.439,-22.879c-2.293,-6.28 -6.031,-9.421 -11.215,-9.421Z" style="fill:#fff;"/><path d="M465.074,226.094l-58.019,0l-37.084,-160.599l62.505,0l11.365,82.542l0.897,0l13.757,-82.542l50.841,0l14.654,82.542l0.598,0l11.065,-82.542l61.608,0l-37.383,160.599l-59.813,0l-17.346,-73.57l-0.598,0l-17.047,73.57Z" style="fill:#fff;fill-rule:nonzero;"/><path d="M697.449,226.094l-64,0l0,-156.711l-37.383,0l0,-55.028l138.767,0l0,55.028l-37.383,0l0,156.711Z" style="fill:#fff;fill-rule:nonzero;"/><path d="M739.019,65.495l58.318,0l0,23.327l0.897,0c2.791,-8.972 6.729,-15.9 11.813,-20.785c5.084,-4.885 11.514,-7.327 19.29,-7.327c2.393,0 4.187,0.1 5.383,0.299c1.196,0.199 2.791,0.598 4.785,1.196l-4.486,60.411c-1.794,-0.598 -3.688,-1.047 -5.682,-1.346c-1.994,-0.299 -4.486,-0.449 -7.477,-0.449c-6.779,0 -12.062,2.592 -15.851,7.776c-3.788,5.184 -5.682,11.564 -5.682,19.14l0,78.355l-61.309,0l0,-160.599Z" style="fill:#fff;fill-rule:nonzero;"/><path d="M913.972,125.907l0,-3.29c0,-7.776 -4.386,-11.664 -13.159,-11.664c-5.583,0 -10.667,1.196 -15.252,3.589c-4.586,2.393 -8.573,5.284 -11.963,8.673l-27.813,-37.682c7.576,-8.374 16.847,-14.804 27.813,-19.29c10.966,-4.486 21.832,-6.729 32.598,-6.729c12.561,0 22.928,1.944 31.103,5.832c8.174,3.888 14.604,9.421 19.29,16.598c4.685,7.178 7.925,15.851 9.72,26.019c1.794,10.168 2.692,21.533 2.692,34.094l0,84.038l-50.243,0l0,-14.654l-0.598,0c-1.595,4.984 -5.134,9.47 -10.617,13.458c-5.483,3.988 -12.71,5.981 -21.682,5.981c-4.785,0 -9.769,-0.748 -14.953,-2.243c-5.184,-1.495 -9.919,-4.137 -14.206,-7.925c-4.287,-3.788 -7.875,-8.872 -10.766,-15.252c-2.891,-6.38 -4.336,-14.455 -4.336,-24.224c0,-10.766 1.994,-19.738 5.981,-26.916c3.988,-7.178 9.221,-12.86 15.701,-17.047c6.48,-4.187 13.707,-7.128 21.682,-8.822c7.975,-1.695 15.95,-2.542 23.925,-2.542l5.084,0Zm-3.589,36.486c-12.162,0 -18.243,4.486 -18.243,13.458c0,3.389 0.847,5.981 2.542,7.776c1.695,1.794 3.938,2.692 6.729,2.692c4.586,0 8.125,-1.645 10.617,-4.935c2.492,-3.29 3.738,-7.526 3.738,-12.71l0,-6.28l-5.383,0Z" style="fill:#fff;"/><path d="M987.842,145.346c0,-12.162 1.495,-23.427 4.486,-33.794c2.991,-10.368 7.377,-19.34 13.159,-26.916c5.782,-7.576 12.76,-13.458 20.935,-17.645c8.174,-4.187 17.545,-6.28 28.112,-6.28c9.171,0 17.196,1.495 24.075,4.486c6.879,2.991 12.611,6.48 17.196,10.467l-23.028,47.252c-2.791,-3.589 -6.679,-5.383 -11.664,-5.383c-3.988,0 -7.626,2.243 -10.916,6.729c-3.29,4.486 -4.935,11.614 -4.935,21.383c0,9.969 1.645,17.146 4.935,21.533c3.29,4.386 6.928,6.579 10.916,6.579c4.984,0 8.872,-1.794 11.664,-5.383l23.028,47.552c-4.586,3.988 -10.268,7.477 -17.047,10.467c-6.779,2.991 -14.854,4.486 -24.224,4.486c-10.567,0 -19.938,-2.093 -28.112,-6.28c-8.174,-4.187 -15.153,-10.069 -20.935,-17.645c-5.782,-7.576 -10.168,-16.598 -13.159,-27.065c-2.991,-10.467 -4.486,-21.981 -4.486,-34.542Z" style="fill:#fff;fill-rule:nonzero;"/><path d="M1169.674,127.402l23.028,-61.907l65.795,0l-34.991,73.57l35.589,87.028l-66.094,0l-23.327,-69.981l-0.598,0l0,69.981l-60.411,0l0,-226.094l60.411,0l0,127.402l0.598,0Z" style="fill:#fff;fill-rule:nonzero;"/><rect x="0.585" y="261.974" width="1256" height="9.907" style="fill:#fff;fill-opacity:0.5;"/></svg>